<svg width="312" height="260" viewBox="0 0 312 260" fill="none" xmlns="http://www.w3.org/2000/svg">
<mask id="path-1-inside-1_170_317" fill="white">
<path fill-rule="evenodd" clip-rule="evenodd" d="M312 20C312 8.95431 303.046 0 292 0H20C8.95431 0 0 8.9543 0 20V240C0 251.046 8.95431 260 20 260H242C253.046 260 262 251.046 262 240V228C262 216.954 270.954 208 282 208H292C303.046 208 312 199.046 312 188V20Z"/>
</mask>
<path fill-rule="evenodd" clip-rule="evenodd" d="M312 20C312 8.95431 303.046 0 292 0H20C8.95431 0 0 8.9543 0 20V240C0 251.046 8.95431 260 20 260H242C253.046 260 262 251.046 262 240V228C262 216.954 270.954 208 282 208H292C303.046 208 312 199.046 312 188V20Z" fill="white"/>
<path d="M20 1H292V-1H20V1ZM1 240V20H-1V240H1ZM242 259H20V261H242V259ZM263 240V228H261V240H263ZM282 209H292V207H282V209ZM311 20V188H313V20H311ZM292 209C303.598 209 313 199.598 313 188H311C311 198.493 302.493 207 292 207V209ZM263 228C263 217.507 271.507 209 282 209V207C270.402 207 261 216.402 261 228H263ZM242 261C253.598 261 263 251.598 263 240H261C261 250.493 252.493 259 242 259V261ZM-1 240C-1 251.598 8.40203 261 20 261V259C9.5066 259 1 250.493 1 240H-1ZM292 1C302.493 1 311 9.50659 311 20H313C313 8.40202 303.598 -1 292 -1V1ZM20 -1C8.40202 -1 -1 8.40202 -1 20H1C1 9.50659 9.50659 1 20 1V-1Z" fill="#D6D3D3" mask="url(#path-1-inside-1_170_317)"/>
</svg>
