<svg width="1400" height="997" viewBox="0 0 1400 997" fill="none" xmlns="http://www.w3.org/2000/svg">
<path d="M1049.62 751.839C854.968 751.839 697.007 639.584 697.007 501.206C891.752 501.206 1049.62 388.951 1049.62 250.467C1049.62 111.982 891.752 -0.166016 697.007 -0.166016L1402.3 -0.166016V501.206C1402.3 639.563 1244.43 751.839 1049.62 751.839Z" fill="#FFE98E"/>
<path d="M697.006 1002.54H-8.37545V501.227C-8.37545 362.806 149.496 250.488 344.3 250.488C539.105 250.488 696.976 362.806 696.976 501.227C502.231 501.227 344.3 613.439 344.3 751.86C344.3 890.281 502.231 1002.54 696.976 1002.54H697.006Z" fill="#FFE98E"/>
</svg>
