<svg width="30" height="30" viewBox="0 0 30 30" fill="none" xmlns="http://www.w3.org/2000/svg">
<path fill-rule="evenodd" clip-rule="evenodd" d="M21.25 5H8.75C8.05964 5 7.5 5.55964 7.5 6.25V23.75C7.5 24.4404 8.05964 25 8.75 25H21.25C21.9404 25 22.5 24.4404 22.5 23.75V6.25C22.5 5.55964 21.9404 5 21.25 5ZM8.75 2.5C6.67893 2.5 5 4.17893 5 6.25V23.75C5 25.8211 6.67893 27.5 8.75 27.5H21.25C23.3211 27.5 25 25.8211 25 23.75V6.25C25 4.17893 23.3211 2.5 21.25 2.5H8.75Z" fill="#35383F"/>
<path fill-rule="evenodd" clip-rule="evenodd" d="M10 6.25C9.30964 6.25 8.75 6.80964 8.75 7.5V10C8.75 10.6904 9.30964 11.25 10 11.25H20C20.6904 11.25 21.25 10.6904 21.25 10V7.5C21.25 6.80964 20.6904 6.25 20 6.25H10Z" fill="#35383F"/>
<path fill-rule="evenodd" clip-rule="evenodd" d="M10.625 21.25C9.93464 21.25 9.375 21.8096 9.375 22.5C9.375 23.1904 9.93464 23.75 10.625 23.75H15C15.6904 23.75 16.25 23.1904 16.25 22.5C16.25 21.8096 15.6904 21.25 15 21.25H10.625Z" fill="#35383F"/>
<path d="M11.875 13.75C11.875 14.4404 11.3154 15 10.625 15C9.93464 15 9.375 14.4404 9.375 13.75C9.375 13.0596 9.93464 12.5 10.625 12.5C11.3154 12.5 11.875 13.0596 11.875 13.75Z" fill="#35383F"/>
<path d="M11.875 18.125C11.875 18.8154 11.3154 19.375 10.625 19.375C9.93464 19.375 9.375 18.8154 9.375 18.125C9.375 17.4346 9.93464 16.875 10.625 16.875C11.3154 16.875 11.875 17.4346 11.875 18.125Z" fill="#35383F"/>
<path d="M16.25 13.75C16.25 14.4404 15.6904 15 15 15C14.3096 15 13.75 14.4404 13.75 13.75C13.75 13.0596 14.3096 12.5 15 12.5C15.6904 12.5 16.25 13.0596 16.25 13.75Z" fill="#35383F"/>
<path d="M16.25 18.125C16.25 18.8154 15.6904 19.375 15 19.375C14.3096 19.375 13.75 18.8154 13.75 18.125C13.75 17.4346 14.3096 16.875 15 16.875C15.6904 16.875 16.25 17.4346 16.25 18.125Z" fill="#35383F"/>
<path d="M20.625 13.75C20.625 14.4404 20.0654 15 19.375 15C18.6846 15 18.125 14.4404 18.125 13.75C18.125 13.0596 18.6846 12.5 19.375 12.5C20.0654 12.5 20.625 13.0596 20.625 13.75Z" fill="#35383F"/>
<path d="M20.625 18.125C20.625 18.8154 20.0654 19.375 19.375 19.375C18.6846 19.375 18.125 18.8154 18.125 18.125C18.125 17.4346 18.6846 16.875 19.375 16.875C20.0654 16.875 20.625 17.4346 20.625 18.125Z" fill="#35383F"/>
<path d="M20.625 22.5C20.625 23.1904 20.0654 23.75 19.375 23.75C18.6846 23.75 18.125 23.1904 18.125 22.5C18.125 21.8096 18.6846 21.25 19.375 21.25C20.0654 21.25 20.625 21.8096 20.625 22.5Z" fill="#35383F"/>
</svg>
