<svg width="512" height="512" viewBox="0 0 512 512" fill="none" xmlns="http://www.w3.org/2000/svg">
<path d="M442.667 85.334C442.667 81.0905 440.981 77.0209 437.981 74.0203C434.98 71.0197 430.91 69.334 426.667 69.334H234.667C230.425 69.3377 226.358 71.0259 223.36 74.0273L50.8376 246.529C40.7088 256.721 35.0238 270.506 35.0238 284.875C35.0238 299.244 40.7088 313.03 50.8376 323.222L50.8803 323.265L188.544 460.929C193.597 465.986 199.596 469.998 206.199 472.735C212.803 475.472 219.881 476.881 227.03 476.881C234.178 476.881 241.256 475.472 247.86 472.735C254.463 469.998 260.463 465.986 265.515 460.929L437.974 288.641C440.975 285.643 442.663 281.576 442.667 277.334V85.334ZM410.667 101.334V270.721L242.88 438.294C238.673 442.491 232.973 444.849 227.03 444.849C221.087 444.849 215.386 442.491 211.179 438.294L73.5363 300.673C69.3675 296.476 67.0279 290.801 67.0279 284.886C67.0279 278.971 69.3675 273.296 73.5363 269.099L241.28 101.334H410.667Z" fill="black"/>
<path d="M314.667 224.001C307.595 224.001 300.812 221.192 295.811 216.191C290.81 211.19 288.001 204.407 288.001 197.335C288.001 190.262 290.81 183.479 295.811 178.478C300.812 173.477 307.595 170.668 314.667 170.668C321.74 170.668 328.523 173.477 333.523 178.478C338.524 183.479 341.334 190.262 341.334 197.335C341.334 204.407 338.524 211.19 333.523 216.191C328.523 221.192 321.74 224.001 314.667 224.001Z" fill="black"/>
</svg>
