<svg width="24" height="24" viewBox="0 0 24 24" fill="none" xmlns="http://www.w3.org/2000/svg">
<g clip-path="url(#clip0_502_480)">
<path d="M17.657 6.343C17.852 6.538 17.852 6.855 17.657 7.05C17.462 7.245 17.145 7.245 16.95 7.05C14.22 4.321 9.78 4.321 7.05 7.05C4.321 9.779 4.321 14.22 7.05 16.949C7.245 17.144 7.245 17.461 7.05 17.656C6.952 17.754 6.824 17.802 6.696 17.802C6.568 17.802 6.44 17.753 6.342 17.656C5.966 17.28 5.638 16.874 5.352 16.448L2.326 18.209C2.247 18.255 2.16 18.277 2.074 18.277C1.902 18.277 1.735 18.188 1.642 18.028C1.502 17.789 1.583 17.484 1.822 17.344L4.851 15.581C4.365 14.609 4.091 13.56 4.026 12.499H0.5C0.224 12.499 0 12.275 0 11.999C0 11.723 0.224 11.499 0.5 11.499H4.027C4.093 10.435 4.368 9.383 4.856 8.41L1.816 6.641C1.578 6.502 1.497 6.196 1.635 5.957C1.775 5.718 2.082 5.639 2.32 5.776L5.357 7.544C5.641 7.12 5.968 6.716 6.342 6.342C6.724 5.96 7.136 5.626 7.57 5.338L5.808 2.307C5.669 2.068 5.75 1.762 5.99 1.623C6.226 1.485 6.534 1.564 6.674 1.804L8.44 4.842C9.406 4.363 10.447 4.092 11.5 4.027V0.5C11.5 0.224 11.724 0 12 0C12.276 0 12.5 0.224 12.5 0.5V4.028C13.558 4.094 14.604 4.366 15.573 4.849L17.343 1.806C17.482 1.567 17.789 1.488 18.027 1.625C18.266 1.764 18.347 2.07 18.209 2.309L16.441 5.348C16.871 5.635 17.279 5.966 17.658 6.344L17.657 6.343ZM15 22C14.448 22 14 22.448 14 23C14 23.552 14.448 24 15 24C15.552 24 16 23.552 16 23C16 22.448 15.552 22 15 22ZM23 8C23.552 8 24 7.552 24 7C24 6.448 23.552 6 23 6C22.448 6 22 6.448 22 7C22 7.552 22.448 8 23 8ZM7 22C6.448 22 6 22.448 6 23C6 23.552 6.448 24 7 24C7.552 24 8 23.552 8 23C8 22.448 7.552 22 7 22ZM23 22C22.448 22 22 22.448 22 23C22 23.552 22.448 24 23 24C23.552 24 24 23.552 24 23C24 22.448 23.552 22 23 22ZM23.015 14.03C22.471 14.03 22.03 14.471 22.03 15.015C22.03 15.559 22.471 16 23.015 16C23.559 16 24 15.559 24 15.015C24 14.471 23.559 14.03 23.015 14.03ZM19 18C18.448 18 18 18.448 18 19C18 19.552 18.448 20 19 20C19.552 20 20 19.552 20 19C20 18.448 19.552 18 19 18ZM11 18C10.448 18 10 18.448 10 19C10 19.552 10.448 20 11 20C11.552 20 12 19.552 12 19C12 18.448 11.552 18 11 18ZM15 14C14.448 14 14 14.448 14 15C14 15.552 14.448 16 15 16C15.552 16 16 15.552 16 15C16 14.448 15.552 14 15 14ZM19 10C18.448 10 18 10.448 18 11C18 11.552 18.448 12 19 12C19.552 12 20 11.552 20 11C20 10.448 19.552 10 19 10Z" fill="black"/>
</g>
<defs>
<clipPath id="clip0_502_480">
<rect width="24" height="24" fill="white"/>
</clipPath>
</defs>
</svg>
