<svg width="24" height="24" viewBox="0 0 24 24" fill="none" xmlns="http://www.w3.org/2000/svg">
<g clip-path="url(#clip0_502_482)">
<path d="M20.501 5C21.879 5 23.001 3.878 23.001 2.5C23.001 1.122 21.879 0 20.501 0C19.123 0 18.001 1.122 18.001 2.5C18.001 3.878 19.123 5 20.501 5ZM20.501 1C21.328 1 22.001 1.673 22.001 2.5C22.001 3.327 21.328 4 20.501 4C19.674 4 19.001 3.327 19.001 2.5C19.001 1.673 19.674 1 20.501 1ZM23.412 14.382L23.924 13.523L20.436 11.448L21.847 8.802C22.105 8.012 22.037 7.288 21.655 6.761C21.299 6.27 20.71 5.999 19.996 5.999H19.642C18.469 5.999 17.328 6.334 16.332 6.974L10.223 11.084L10.782 11.914L16.883 7.81C17.053 7.701 17.231 7.609 17.411 7.521L14.216 13.695C13.746 14.761 14.067 15.997 15.041 16.729L20.211 19.825L18.006 23.998H19.137L21.539 19.454L17.467 17.017L19.967 12.33L23.415 14.381L23.412 14.382ZM15.598 15.902C15.04 15.481 14.848 14.739 15.116 14.128L18.762 7.085C19.051 7.034 19.344 7 19.642 7H19.996C20.381 7 20.683 7.124 20.846 7.349C21.035 7.609 21.053 8.015 20.931 8.411L16.606 16.505L15.598 15.902ZM8.51295 13.394C9.09295 12.524 9.15095 10.933 8.65695 9.427L8.51595 8.996L3.99695 10L4.29295 10.576C4.83495 11.631 5.45095 12.7 6.14895 13.357C3.41195 14.623 0.00195312 19.036 0.00195312 21.28C0.00195312 22.132 0.220953 22.763 0.670953 23.21C1.48595 24.019 2.83995 24.01 4.41095 23.996C4.94495 23.99 5.61595 23.997 6.14595 23.999C7.47895 23.999 8.61595 23.922 9.33295 23.21C9.78295 22.763 10.002 22.132 10.002 21.28C10.002 16.827 9.53295 14.301 8.51295 13.393V13.394ZM5.48695 10.694L7.83095 10.173C8.12195 11.352 7.99095 12.383 7.67795 12.846C7.64695 12.892 7.56695 13 7.50195 13C7.21395 13 6.58395 12.685 5.48695 10.694ZM8.62795 22.501C8.10895 23.016 6.94395 23.009 5.60095 22.997C5.30295 22.994 4.70095 22.994 4.40295 22.997C3.05695 23.007 1.89495 23.016 1.37595 22.501C1.12495 22.251 1.00195 21.852 1.00195 21.28C1.00195 19.164 5.26695 13.999 7.50195 13.999C7.85395 13.999 9.00195 14.524 9.00195 21.28C9.00195 21.852 8.87995 22.251 8.62795 22.501ZM13.895 18.182L14.758 18.692L11.992 24H10.872L13.894 18.183L13.895 18.182Z" fill="black"/>
</g>
<defs>
<clipPath id="clip0_502_482">
<rect width="24" height="24" fill="white"/>
</clipPath>
</defs>
</svg>
