<svg width="24" height="24" viewBox="0 0 24 24" fill="none" xmlns="http://www.w3.org/2000/svg">
<g clip-path="url(#clip0_502_486)">
<path d="M2.5 5L1.667 3.333L0 2.5L1.667 1.667L2.5 0L3.333 1.667L5 2.5L3.333 3.333L2.5 5ZM13.588 18.843L13.971 21.665C14.211 22.827 13.2 24.036 12 24C10.788 24.03 9.788 22.829 10.032 21.644L10.389 18.842C6.402 18.077 3.326 14.53 3.033 10.18L4.09 10.703C4.597 14.481 7.446 17.462 11.022 17.929C11.681 18.016 12.323 18.016 12.978 17.93C16.929 17.415 20.001 13.834 20.001 9.5C20.001 4.813 16.412 1 12.001 1C10.141 1 8.431 1.684 7.071 2.82L6.615 1.907C8.119 0.715 9.98 0 12.001 0C16.964 0 21.001 4.262 21.001 9.5C21.001 14.165 17.795 18.048 13.588 18.843ZM12.009 19C11.805 19.001 11.602 18.992 11.38 18.974L11.021 21.796C10.963 22.114 11.042 22.413 11.233 22.641C11.614 23.098 12.387 23.098 12.768 22.641C12.958 22.413 13.038 22.115 12.984 21.822L12.597 18.976C12.391 18.992 12.201 19 12.009 19ZM4.377 8.373L2.132 7.25L4.377 6.127L5.5 3.882L6.623 6.127L8.868 7.25L6.623 8.373L5.5 10.618L4.377 8.373ZM4.368 7.25L5.123 7.627L5.5 8.382L5.877 7.627L6.632 7.25L5.877 6.873L5.5 6.118L5.123 6.873L4.368 7.25Z" fill="black"/>
</g>
<defs>
<clipPath id="clip0_502_486">
<rect width="24" height="24" fill="white"/>
</clipPath>
</defs>
</svg>
