<svg width="24" height="24" viewBox="0 0 24 24" fill="none" xmlns="http://www.w3.org/2000/svg">
<g clip-path="url(#clip0_502_472)">
<path d="M21.75 6H21V5C21 3.759 19.99 2.75 18.75 2.75H18V2.5C18 1.122 16.879 0 15.5 0H2.5C1.121 0 0 1.122 0 2.5V18H3V21H6V24H24V8.25C24 7.009 22.99 6 21.75 6ZM1 5.707L3 3.707L5.23 5.937L1 10.168V5.707ZM16.85 1.857C16.944 2.053 17 2.269 17 2.5V6.418L12.062 11.356L9.707 9.001L16.85 1.858V1.857ZM6.031 11.262L3.676 8.907L8.906 3.677L11.261 6.032L6.031 11.262ZM5.937 5.231L3.707 3.001L5.707 1.001H10.168L5.938 5.231H5.937ZM1 11.582L2.969 9.613L5.324 11.968L1 16.292V11.582ZM9 9.707L11.355 12.062L6.417 17H1.707L9 9.707ZM9.094 15.738L10.356 17H7.833L9.095 15.738H9.094ZM11.77 17L9.801 15.031L15.031 9.801L17 11.77V12.297L12.412 17.001H11.769L11.77 17ZM17 13.729V17H13.81L17 13.729ZM17 10.355L15.738 9.093L17 7.831V10.355ZM16.143 1.15L11.969 5.324L9.614 2.969L11.583 1H15.501C15.732 1 15.947 1.057 16.143 1.15ZM2.5 1H4.293L1 4.293V2.5C1 1.673 1.673 1 2.5 1ZM4 18H18V3.75H18.75C19.439 3.75 20 4.311 20 5V20H4V18ZM23 23H7V21H21V7H21.75C22.439 7 23 7.561 23 8.25V23Z" fill="black"/>
</g>
<defs>
<clipPath id="clip0_502_472">
<rect width="24" height="24" fill="white"/>
</clipPath>
</defs>
</svg>
