<svg width="24" height="24" viewBox="0 0 24 24" fill="none" xmlns="http://www.w3.org/2000/svg">
<g clip-path="url(#clip0_502_430)">
<path d="M23.2688 8.0968L15.8798 0.706797C14.9338 -0.238203 13.2868 -0.238203 12.3438 0.706797L0.707813 12.3428C-0.267187 13.3178 -0.267187 14.9048 0.707813 15.8788L8.09681 23.2678C8.56881 23.7408 9.19681 23.9998 9.86481 23.9998C10.5328 23.9998 11.1598 23.7398 11.6328 23.2678L23.2688 11.6318C23.7418 11.1588 24.0008 10.5308 24.0008 9.8638C24.0008 9.1968 23.7408 8.5678 23.2688 8.0958V8.0968ZM13.0518 1.4138C13.3348 1.1308 13.7108 0.974797 14.1128 0.974797C14.5148 0.974797 14.8898 1.1308 15.1738 1.4138L18.4958 4.7358L15.4708 7.7608L11.0868 3.3788L13.0518 1.4138ZM11.9688 12.6748L16.3898 17.0958L13.5968 19.8888L9.17981 15.4638L11.9688 12.6748ZM8.47381 14.7558L4.09581 10.3698L6.87981 7.5858L11.2618 11.9678L8.47381 14.7558ZM12.6758 11.9678L15.4688 9.1748L19.8898 13.5958L17.0968 16.3888L12.6758 11.9678ZM11.9688 11.2608L7.58681 6.8788L10.3798 4.0858L14.7618 8.4678L11.9688 11.2608ZM1.41481 13.0498L3.38781 11.0768L7.76581 15.4628L4.73581 18.4928L1.41481 15.1718C0.830813 14.5868 0.830813 13.6348 1.41481 13.0498ZM10.9258 22.5608C10.3578 23.1278 9.37181 23.1258 8.80381 22.5608L5.44281 19.2008L8.47181 16.1718L12.8888 20.5968L10.9238 22.5618L10.9258 22.5608ZM22.5618 10.9248L20.5978 12.8888L16.1768 8.4678L19.2018 5.4428L22.5618 8.8038C22.8448 9.0868 23.0008 9.4628 23.0008 9.8648C23.0008 10.2668 22.8448 10.6408 22.5618 10.9248Z" fill="black"/>
</g>
<defs>
<clipPath id="clip0_502_430">
<rect width="24" height="24" fill="white"/>
</clipPath>
</defs>
</svg>
