<svg width="24" height="24" viewBox="0 0 24 24" fill="none" xmlns="http://www.w3.org/2000/svg">
<path d="M19.5 0H4.5C3.121 0 2 1.122 2 2.5V24H22V2.5C22 1.122 20.879 0 19.5 0ZM21 23H3V2.5C3 1.673 3.673 1 4.5 1H19.5C20.327 1 21 1.673 21 2.5V23ZM6 5C5.448 5 5 4.552 5 4C5 3.448 5.448 3 6 3C6.552 3 7 3.448 7 4C7 4.552 6.552 5 6 5ZM9 4C9 3.448 9.448 3 10 3C10.552 3 11 3.448 11 4C11 4.552 10.552 5 10 5C9.448 5 9 4.552 9 4ZM12 8C8.691 8 6 10.691 6 14C6 17.309 8.691 20 12 20C15.309 20 18 17.309 18 14C18 10.691 15.309 8 12 8ZM12 19C9.243 19 7 16.757 7 14C7 11.243 9.243 9 12 9C14.757 9 17 11.243 17 14C17 16.757 14.757 19 12 19ZM12 12.364C12 13.389 10.937 14.288 10.816 14.387C10.501 14.647 10 15.217 10 15.637C10 16.07 10.583 16.477 10.739 16.562L10.26 17.44C10.131 17.37 8.999 16.721 8.999 15.637C8.999 14.611 10.061 13.713 10.183 13.614C10.498 13.354 10.999 12.784 10.999 12.365C10.999 11.932 10.416 11.525 10.26 11.44L10.739 10.562C10.868 10.632 12 11.28 12 12.364ZM15 12.364C15 13.389 13.937 14.288 13.816 14.387C13.501 14.647 13 15.217 13 15.637C13 16.07 13.583 16.477 13.739 16.562L13.26 17.44C13.131 17.37 11.999 16.721 11.999 15.637C11.999 14.611 13.061 13.713 13.183 13.614C13.498 13.354 13.999 12.784 13.999 12.365C13.999 11.932 13.416 11.525 13.26 11.44L13.739 10.562C13.868 10.632 15 11.28 15 12.364Z" fill="black"/>
</svg>
