<svg width="24" height="24" viewBox="0 0 24 24" fill="none" xmlns="http://www.w3.org/2000/svg">
<g clip-path="url(#clip0_502_488)">
<path d="M20.5 24.0014C20.458 24.0014 20.414 23.9964 20.371 23.9844C20.104 23.9134 19.945 23.6394 20.017 23.3724C20.131 22.9444 20.26 22.5464 20.386 22.1544C20.701 21.1744 21 20.2484 21 18.9944C21 16.2284 19.971 14.1934 19.073 12.7294C18.108 11.1534 17 8.95845 17 5.94144C17 4.05745 17.772 1.45944 18.294 0.295445C18.407 0.0434445 18.703 -0.0695555 18.955 0.0444445C19.207 0.157445 19.319 0.453445 19.206 0.705445C18.785 1.64344 18 4.14145 18 5.94144C18 8.70745 19.029 10.7424 19.927 12.2064C20.892 13.7824 22 15.9774 22 18.9944C22 20.4054 21.663 21.4504 21.337 22.4614C21.216 22.8364 21.093 23.2194 20.983 23.6294C20.923 23.8534 20.721 24.0014 20.5 24.0014ZM13.5 24.0014C13.458 24.0014 13.414 23.9964 13.371 23.9844C13.104 23.9134 12.945 23.6394 13.017 23.3724C13.131 22.9444 13.26 22.5464 13.386 22.1544C13.701 21.1744 14 20.2484 14 18.9944C14 16.2284 12.971 14.1934 12.073 12.7294C11.108 11.1534 10 8.95845 10 5.94144C10 4.05745 10.772 1.45944 11.294 0.295445C11.406 0.0434445 11.703 -0.0695555 11.955 0.0444445C12.207 0.157445 12.319 0.453445 12.206 0.705445C11.785 1.64344 11 4.14145 11 5.94144C11 8.70745 12.029 10.7424 12.927 12.2064C13.892 13.7824 15 15.9774 15 18.9944C15 20.4054 14.663 21.4504 14.337 22.4614C14.216 22.8364 14.093 23.2194 13.983 23.6294C13.923 23.8534 13.721 24.0014 13.5 24.0014ZM6.5 24.0014C6.458 24.0014 6.414 23.9964 6.371 23.9844C6.104 23.9134 5.945 23.6394 6.017 23.3724C6.131 22.9444 6.26 22.5464 6.386 22.1544C6.701 21.1744 7 20.2484 7 18.9944C7 16.2284 5.971 14.1934 5.073 12.7294C4.108 11.1534 3 8.95845 3 5.94144C3 4.05745 3.772 1.45944 4.294 0.295445C4.406 0.0434445 4.704 -0.0695555 4.955 0.0444445C5.207 0.157445 5.319 0.453445 5.206 0.705445C4.785 1.64344 4 4.14145 4 5.94144C4 8.70745 5.029 10.7424 5.927 12.2064C6.892 13.7824 8 15.9774 8 18.9944C8 20.4054 7.663 21.4504 7.337 22.4614C7.216 22.8364 7.093 23.2194 6.983 23.6294C6.923 23.8534 6.721 24.0014 6.5 24.0014Z" fill="black"/>
</g>
<defs>
<clipPath id="clip0_502_488">
<rect width="24" height="24" fill="white"/>
</clipPath>
</defs>
</svg>
