<svg width="24" height="24" viewBox="0 0 24 24" fill="none" xmlns="http://www.w3.org/2000/svg">
<g clip-path="url(#clip0_502_490)">
<path d="M20 13V11H19V13H12.5V4.25C12.5 2.458 13.958 1 15.75 1C17.542 1 19 2.458 19 4.25V5H20V4.25C20 1.907 18.094 0 15.75 0C13.406 0 11.5 1.907 11.5 4.25V13H5V11H4V13H0V16.5C0 20.636 3.364 24 7.5 24H16.5C20.636 24 24 20.636 24 16.5V13H20ZM23 16.5C23 20.084 20.084 23 16.5 23H7.5C3.916 23 1 20.084 1 16.5V14H23V16.5Z" fill="black"/>
</g>
<defs>
<clipPath id="clip0_502_490">
<rect width="24" height="24" fill="white"/>
</clipPath>
</defs>
</svg>
