<svg width="24" height="24" viewBox="0 0 24 24" fill="none" xmlns="http://www.w3.org/2000/svg">
<g clip-path="url(#clip0_502_492)">
<path d="M24 12.149C24 11.665 23.922 11.186 23.769 10.726L22.43 6.709C22.089 5.687 21.136 5 20.058 5H16.999V3.5C16.999 2.122 15.877 1 14.499 1H2.5C1.122 1 0 2.122 0 3.5V20C0 21.654 1.346 23 3 23C4.043 23 4.962 22.465 5.5 21.656C6.038 22.465 6.957 23 8 23C9.654 23 11 21.654 11 20V19H16V20C16 21.654 17.346 23 19 23C20.654 23 22 21.654 22 20V19H24V12.149ZM20.059 6C20.705 6 21.277 6.412 21.482 7.026L22.806 11H17V6H20.059ZM1 3.5C1 2.673 1.673 2 2.5 2H14.5C15.327 2 16 2.673 16 3.5V18H1V3.5ZM3 22C1.897 22 1 21.103 1 20V19H5V20C5 21.103 4.103 22 3 22ZM10 20C10 21.103 9.103 22 8 22C6.897 22 6 21.103 6 20V19H10V20ZM21 20C21 21.103 20.103 22 19 22C17.897 22 17 21.103 17 20V19H21V20ZM23 18H17V12H22.997C22.999 12.05 23 12.099 23 12.149V18Z" fill="black"/>
</g>
<defs>
<clipPath id="clip0_502_492">
<rect width="24" height="24" fill="white"/>
</clipPath>
</defs>
</svg>
