<svg width="24" height="24" viewBox="0 0 24 24" fill="none" xmlns="http://www.w3.org/2000/svg">
<path d="M8 7C6.897 7 6 7.897 6 9C6 10.103 6.897 11 8 11C9.103 11 10 10.103 10 9C10 7.897 9.103 7 8 7ZM8 10C7.449 10 7 9.552 7 9C7 8.448 7.449 8 8 8C8.551 8 9 8.448 9 9C9 9.552 8.551 10 8 10ZM8 15.5C8 15.776 7.776 16 7.5 16H5.5C5.224 16 5 15.776 5 15.5C5 15.224 5.224 15 5.5 15H7.5C7.776 15 8 15.224 8 15.5ZM22.5 9H22V7.5C22 5.019 19.981 3 17.5 3H12.5V0.5C12.5 0.224 12.276 0 12 0C11.724 0 11.5 0.224 11.5 0.5V3H6.5C4.019 3 2 5.019 2 7.5V9H1.5C0.673 9 0 9.673 0 10.5V14.5C0 15.327 0.673 16 1.5 16H2V16.5C2 18.981 4.019 21 6.5 21H17.5C19.981 21 22 18.981 22 16.5V16H22.5C23.327 16 24 15.327 24 14.5V10.5C24 9.673 23.327 9 22.5 9ZM2 15H1.5C1.224 15 1 14.775 1 14.5V10.5C1 10.225 1.224 10 1.5 10H2V15ZM21 16.5C21 18.43 19.43 20 17.5 20H6.5C4.57 20 3 18.43 3 16.5V7.5C3 5.57 4.57 4 6.5 4H17.5C19.43 4 21 5.57 21 7.5V16.5ZM23 14.5C23 14.775 22.775 15 22.5 15H22V10H22.5C22.775 10 23 10.225 23 10.5V14.5ZM19 15.5C19 15.776 18.776 16 18.5 16H16.5C16.224 16 16 15.776 16 15.5C16 15.224 16.224 15 16.5 15H18.5C18.776 15 19 15.224 19 15.5ZM14 15.5C14 15.776 13.776 16 13.5 16H10.5C10.224 16 10 15.776 10 15.5C10 15.224 10.224 15 10.5 15H13.5C13.776 15 14 15.224 14 15.5ZM18 9C18 7.897 17.103 7 16 7C14.897 7 14 7.897 14 9C14 10.103 14.897 11 16 11C17.103 11 18 10.103 18 9ZM15 9C15 8.448 15.448 8 16 8C16.552 8 17 8.448 17 9C17 9.552 16.552 10 16 10C15.448 10 15 9.552 15 9Z" fill="black"/>
</svg>
