<svg width="24" height="24" viewBox="0 0 24 24" fill="none" xmlns="http://www.w3.org/2000/svg">
<path d="M4 14H10C11.654 14 13 12.654 13 11V5C13 3.346 11.654 2 10 2H4C2.346 2 1 3.346 1 5V11C1 12.654 2.346 14 4 14ZM2 5C2 3.897 2.897 3 4 3H10C11.103 3 12 3.897 12 5V11C12 12.103 11.103 13 10 13H4C2.897 13 2 12.103 2 11V5ZM17.5 14H20.5C21.879 14 23 12.878 23 11.5V8.5C23 7.122 21.879 6 20.5 6H17.5C16.121 6 15 7.122 15 8.5V11.5C15 12.878 16.121 14 17.5 14ZM16 8.5C16 7.673 16.673 7 17.5 7H20.5C21.327 7 22 7.673 22 8.5V11.5C22 12.327 21.327 13 20.5 13H17.5C16.673 13 16 12.327 16 11.5V8.5ZM20 16H4C1.794 16 0 17.794 0 20C0 22.206 1.794 24 4 24H20C22.206 24 24 22.206 24 20C24 17.794 22.206 16 20 16ZM20 23H4C2.346 23 1 21.654 1 20C1 18.346 2.346 17 4 17H20C21.654 17 23 18.346 23 20C23 21.654 21.654 23 20 23ZM5 20C5 20.552 4.552 21 4 21C3.448 21 3 20.552 3 20C3 19.448 3.448 19 4 19C4.552 19 5 19.448 5 20ZM21 20C21 20.552 20.552 21 20 21C19.448 21 19 20.552 19 20C19 19.448 19.448 19 20 19C20.552 19 21 19.448 21 20ZM10 20C10 20.552 9.552 21 9 21C8.448 21 8 20.552 8 20C8 19.448 8.448 19 9 19C9.552 19 10 19.448 10 20ZM16 20C16 20.552 15.552 21 15 21C14.448 21 14 20.552 14 20C14 19.448 14.448 19 15 19C15.552 19 16 19.448 16 20Z" fill="black"/>
</svg>
