<svg width="24" height="24" viewBox="0 0 24 24" fill="none" xmlns="http://www.w3.org/2000/svg">
<g clip-path="url(#clip0_170_508)">
<path d="M5.5 5C6.88 5 8 3.88 8 2.5C8 1.12 6.88 0 5.5 0C4.12 0 3 1.12 3 2.5C3 3.88 4.12 5 5.5 5ZM5.5 1C6.33 1 7 1.67 7 2.5C7 3.33 6.33 4 5.5 4C4.67 4 4 3.33 4 2.5C4 1.67 4.67 1 5.5 1ZM6.5 6H4.5C2.57 6 1 7.57 1 9.5V13.5C1 14.89 1.82 16.1 3 16.66V23.5C3 23.78 3.22 24 3.5 24C3.78 24 4 23.78 4 23.5V16.96C4.16 16.98 4.33 17 4.5 17H6.5C6.67 17 6.84 16.99 7 16.96V23.5C7 23.78 7.22 24 7.5 24C7.78 24 8 23.78 8 23.5V16.66C9.18 16.1 10 14.89 10 13.5V9.5C10 7.57 8.43 6 6.5 6ZM9 13.5C9 14.88 7.88 16 6.5 16H4.5C3.12 16 2 14.88 2 13.5V9.5C2 8.12 3.12 7 4.5 7H6.5C7.88 7 9 8.12 9 9.5V13.5ZM18.5 5C19.88 5 21 3.88 21 2.5C21 1.12 19.88 0 18.5 0C17.12 0 16 1.12 16 2.5C16 3.88 17.12 5 18.5 5ZM18.5 1C19.33 1 20 1.67 20 2.5C20 3.33 19.33 4 18.5 4C17.67 4 17 3.33 17 2.5C17 1.67 17.67 1 18.5 1ZM19.5 6H17.5C15.57 6 14 7.57 14 9.5V13.5C14 14.89 14.82 16.1 16 16.66V23.5C16 23.78 16.22 24 16.5 24C16.78 24 17 23.78 17 23.5V16.96C17.16 16.98 17.33 17 17.5 17H19.5C19.67 17 19.84 16.99 20 16.96V23.5C20 23.78 20.22 24 20.5 24C20.78 24 21 23.78 21 23.5V16.66C22.18 16.1 23 14.89 23 13.5V9.5C23 7.57 21.43 6 19.5 6ZM22 13.5C22 14.88 20.88 16 19.5 16H17.5C16.12 16 15 14.88 15 13.5V9.5C15 8.12 16.12 7 17.5 7H19.5C20.88 7 22 8.12 22 9.5V13.5Z" fill="black"/>
</g>
<defs>
<clipPath id="clip0_170_508">
<rect width="24" height="24" fill="white"/>
</clipPath>
</defs>
</svg>
