<svg width="24" height="24" viewBox="0 0 24 24" fill="none" xmlns="http://www.w3.org/2000/svg">
<g clip-path="url(#clip0_170_514)">
<path d="M8.5 5C9.879 5 11 3.879 11 2.5C11 1.121 9.879 0 8.5 0C7.121 0 6 1.121 6 2.5C6 3.879 7.121 5 8.5 5ZM8.5 1C9.327 1 10 1.673 10 2.5C10 3.327 9.327 4 8.5 4C7.673 4 7 3.327 7 2.5C7 1.673 7.673 1 8.5 1ZM4.017 9.372C4.544 7.387 6.388 6 8.5 6C10.612 6 12.456 7.387 12.983 9.372C13.053 9.639 12.895 9.912 12.628 9.983C12.337 10.067 12.076 9.852 12.017 9.628C11.607 8.081 10.161 7 8.5 7C6.839 7 5.394 8.081 4.983 9.628C4.912 9.896 4.642 10.058 4.372 9.983C4.104 9.912 3.946 9.638 4.017 9.372ZM23.181 9.654C22.684 9.203 22.035 8.971 21.372 9.003C20.702 9.034 20.084 9.324 19.633 9.82L15.901 13.923C15.587 12.815 14.566 12 13.358 12H3.5C1.57 12 0 13.57 0 15.5V20.5C0 22.43 1.57 24 3.5 24H9.465C12.171 24 14.756 22.841 16.558 20.82L23.364 13.18C24.275 12.159 24.193 10.576 23.181 9.654ZM22.618 12.514L15.812 20.154C14.2 21.963 11.886 23 9.465 23H3.5C2.121 23 1 21.879 1 20.5V15.5C1 14.121 2.121 13 3.5 13H13.357C14.262 13 15 13.737 15 14.643C15 15.455 14.395 16.154 13.602 16.267L7.441 17.004C7.167 17.036 6.971 17.285 7.004 17.56C7.036 17.834 7.287 18.037 7.56 17.997L13.732 17.259C14.754 17.113 15.578 16.38 15.878 15.435L20.374 10.496C20.645 10.197 21.017 10.022 21.42 10.004C21.825 9.985 22.209 10.124 22.508 10.396C23.117 10.952 23.166 11.903 22.618 12.517V12.514Z" fill="black"/>
</g>
<defs>
<clipPath id="clip0_170_514">
<rect width="24" height="24" fill="white"/>
</clipPath>
</defs>
</svg>
