<svg width="24" height="24" viewBox="0 0 24 24" fill="none" xmlns="http://www.w3.org/2000/svg">
<g clip-path="url(#clip0_170_516)">
<path d="M23.999 5.5V15.601C23.999 17.604 23.219 19.488 21.802 20.904L18.852 23.854C18.754 23.952 18.626 24 18.498 24C18.37 24 18.242 23.951 18.144 23.854C17.949 23.659 17.949 23.342 18.144 23.147L21.094 20.197C22.322 18.969 22.998 17.337 22.998 15.601V5.5C22.998 4.673 22.325 4 21.498 4C20.671 4 19.998 4.673 19.998 5.5C19.998 5.5 19.996 13.545 19.993 13.567C19.978 14.114 19.785 14.658 19.414 15.1L16.776 17.846C16.678 17.948 16.547 17.999 16.416 17.999C16.291 17.999 16.166 17.953 16.069 17.859C15.87 17.668 15.864 17.351 16.055 17.152L18.671 14.431C18.889 14.171 18.999 13.84 18.999 13.507C18.999 13.504 18.999 13.502 18.999 13.499V13.461C18.989 13.116 18.862 12.77 18.617 12.496C18.067 11.883 17.12 11.83 16.504 12.38L13.775 14.892C13.259 15.366 12.846 15.925 12.544 16.555C12.841 17.308 13 18.117 13 18.94V23.499C13 23.775 12.776 23.999 12.5 23.999C12.224 23.999 12 23.775 12 23.499V18.94C12 17.406 11.353 15.931 10.224 14.893L7.49005 12.377C6.88105 11.831 5.93305 11.883 5.38205 12.497C4.88805 13.048 4.87505 13.891 5.35005 14.457L7.94305 17.152C8.13405 17.351 8.12805 17.668 7.92905 17.859C7.72905 18.05 7.41305 18.044 7.22205 17.845L4.60605 15.124C4.23105 14.678 4.03305 14.139 4.00905 13.598C4.00305 13.566 3.99905 5.498 3.99905 5.498C3.99905 4.671 3.32605 3.998 2.49905 3.998C1.67205 3.998 0.999047 4.671 0.999047 5.498V15.599C0.999047 17.335 1.67505 18.968 2.90305 20.195L5.85305 23.145C6.04805 23.34 6.04805 23.657 5.85305 23.852C5.75505 23.95 5.62705 23.998 5.49905 23.998C5.37105 23.998 5.24305 23.949 5.14505 23.852L2.19505 20.902C0.778047 19.485 -0.00195312 17.602 -0.00195312 15.599V5.5C-0.00195312 4.122 1.12005 3 2.49805 3C3.87605 3 4.99805 4.122 4.99805 5.5V11.498C5.93105 10.799 7.26005 10.83 8.16005 11.636L10.899 14.157C11.325 14.549 11.693 14.995 11.997 15.478C12.302 14.993 12.67 14.551 13.097 14.157L15.831 11.641C16.735 10.831 18.065 10.799 18.998 11.498V5.5C18.998 4.122 20.12 3 21.498 3C22.876 3 23.999 4.122 23.999 5.5ZM6.99905 2.93C6.99905 1.314 8.23205 0 9.74905 0C10.711 0 11.514 0.415 11.999 1.09C12.484 0.415 13.287 0 14.249 0C15.766 0 16.999 1.314 16.999 2.93C16.999 5.045 14.45 7.638 13.103 8.713C12.778 8.972 12.389 9.101 11.999 9.101C11.609 9.101 11.221 8.972 10.896 8.713C9.54805 7.638 6.99905 5.046 6.99905 2.93ZM7.99905 2.93C7.99905 4.442 10.058 6.765 11.52 7.93C11.802 8.156 12.197 8.156 12.479 7.93C13.94 6.764 15.999 4.442 15.999 2.93C15.999 1.866 15.214 1 14.249 1C13.219 1 12.499 1.703 12.499 2.709C12.499 2.985 12.275 3.209 11.999 3.209C11.723 3.209 11.499 2.985 11.499 2.709C11.499 1.703 10.779 1 9.74905 1C8.78405 1 7.99905 1.866 7.99905 2.93Z" fill="black"/>
</g>
<defs>
<clipPath id="clip0_170_516">
<rect width="24" height="24" fill="white"/>
</clipPath>
</defs>
</svg>
