<svg width="24" height="24" viewBox="0 0 24 24" fill="none" xmlns="http://www.w3.org/2000/svg">
<path d="M14.7 4H7.3C6.583 4 6 4.583 6 5.3V6.7C6 7.417 6.583 8 7.3 8H14.7C15.417 8 16 7.417 16 6.7V5.3C16 4.583 15.417 4 14.7 4ZM15 6.7C15 6.865 14.865 7 14.7 7H7.3C7.134 7 7 6.865 7 6.7V5.3C7 5.135 7.134 5 7.3 5H14.7C14.865 5 15 5.135 15 5.3V6.7ZM8 10.5C8 10.776 7.776 11 7.5 11H6.5C6.224 11 6 10.776 6 10.5C6 10.224 6.224 10 6.5 10H7.5C7.776 10 8 10.224 8 10.5ZM16 10.5C16 10.776 15.776 11 15.5 11H14.5C14.224 11 14 10.776 14 10.5C14 10.224 14.224 10 14.5 10H15.5C15.776 10 16 10.224 16 10.5ZM8 13.5C8 13.776 7.776 14 7.5 14H6.5C6.224 14 6 13.776 6 13.5C6 13.224 6.224 13 6.5 13H7.5C7.776 13 8 13.224 8 13.5ZM16 13.5C16 13.776 15.776 14 15.5 14H14.5C14.224 14 14 13.776 14 13.5C14 13.224 14.224 13 14.5 13H15.5C15.776 13 16 13.224 16 13.5ZM12 10.5C12 10.776 11.776 11 11.5 11H10.5C10.224 11 10 10.776 10 10.5C10 10.224 10.224 10 10.5 10H11.5C11.776 10 12 10.224 12 10.5ZM12 13.5C12 13.776 11.776 14 11.5 14H10.5C10.224 14 10 13.776 10 13.5C10 13.224 10.224 13 10.5 13H11.5C11.776 13 12 13.224 12 13.5ZM8 16.5C8 16.776 7.776 17 7.5 17H6.5C6.224 17 6 16.776 6 16.5C6 16.224 6.224 16 6.5 16H7.5C7.776 16 8 16.224 8 16.5ZM16 16.5C16 16.776 15.776 17 15.5 17H14.5C14.224 17 14 16.776 14 16.5C14 16.224 14.224 16 14.5 16H15.5C15.776 16 16 16.224 16 16.5ZM12 16.5C12 16.776 11.776 17 11.5 17H10.5C10.224 17 10 16.776 10 16.5C10 16.224 10.224 16 10.5 16H11.5C11.776 16 12 16.224 12 16.5ZM8 19.5C8 19.776 7.776 20 7.5 20H6.5C6.224 20 6 19.776 6 19.5C6 19.224 6.224 19 6.5 19H7.5C7.776 19 8 19.224 8 19.5ZM16 19.5C16 19.776 15.776 20 15.5 20H14.5C14.224 20 14 19.776 14 19.5C14 19.224 14.224 19 14.5 19H15.5C15.776 19 16 19.224 16 19.5ZM12 19.5C12 19.776 11.776 20 11.5 20H10.5C10.224 20 10 19.776 10 19.5C10 19.224 10.224 19 10.5 19H11.5C11.776 19 12 19.224 12 19.5ZM20.5 4H19.949C19.697 1.756 17.81 0 15.5 0H6.5C4.019 0 2 2.019 2 4.5V19.5C2 21.981 4.019 24 6.5 24H15.5C17.453 24 19.102 22.742 19.724 21H20.5C21.327 21 22 20.327 22 19.5V5.5C22 4.673 21.327 4 20.5 4ZM19 19.5C19 21.43 17.43 23 15.5 23H6.5C4.57 23 3 21.43 3 19.5V4.5C3 2.57 4.57 1 6.5 1H15.5C17.43 1 19 2.57 19 4.5V19.5ZM21 19.5C21 19.775 20.775 20 20.5 20H19.949C19.968 19.834 20 19.671 20 19.5V5H20.5C20.775 5 21 5.225 21 5.5V19.5Z" fill="black"/>
</svg>
