<svg width="320" height="889" viewBox="0 0 320 889" fill="none" xmlns="http://www.w3.org/2000/svg">
<g clip-path="url(#clip0_588_715)">
<path d="M240.049 663.278C195.87 663.278 160.018 564.157 160.018 441.969C204.218 441.969 240.049 342.849 240.049 220.567C240.049 98.2846 204.218 -0.742187 160.018 -0.742187L320.094 -0.742188L320.094 441.969C320.094 564.139 284.263 663.278 240.049 663.278Z" fill="white"/>
<path d="M160.027 884.626H-0.0684662L-0.0684662 441.971C-0.0684662 319.745 35.7625 220.568 79.976 220.568C124.19 220.568 160.021 319.745 160.021 441.971C115.821 441.971 79.976 541.054 79.976 663.28C79.976 785.505 115.821 884.626 160.021 884.626H160.027Z" fill="white"/>
</g>
<defs>
<clipPath id="clip0_588_715">
<rect width="889" height="320" fill="white" transform="matrix(0 1 -1 0 320 0)"/>
</clipPath>
</defs>
</svg>
