<svg width="1398" height="605" viewBox="0 0 1398 605" fill="none" xmlns="http://www.w3.org/2000/svg">
<g clip-path="url(#clip0_588_641)">
<path d="M1048.72 492.929C855.71 492.929 699.084 419.266 699.084 328.459C892.183 328.459 1048.72 254.796 1048.72 163.919C1048.72 73.043 892.183 -0.550781 699.084 -0.550781L1398.41 -0.550781V328.459C1398.41 419.252 1241.88 492.929 1048.72 492.929Z" fill="white"/>
<path d="M699.109 657.426L-0.309204 657.426L-0.309204 328.458C-0.309204 237.623 156.227 163.918 349.385 163.918C542.543 163.918 699.08 237.623 699.08 328.458C505.981 328.458 349.385 402.093 349.385 492.928C349.385 583.763 505.981 657.426 699.08 657.426H699.109Z" fill="white"/>
</g>
<defs>
<clipPath id="clip0_588_641">
<rect width="605" height="1398" fill="white" transform="matrix(0 1 -1 0 1398 0)"/>
</clipPath>
</defs>
</svg>
