<svg width="216" height="42" viewBox="0 0 216 42" fill="none" xmlns="http://www.w3.org/2000/svg">
<path d="M50.5137 18.8809C50.5137 14.6204 51.4867 11.9607 53.2299 10.3013C55.0023 8.61467 57.233 8.24219 59.1498 8.24219C60.6648 8.24219 63.1822 8.47028 65.0112 10.3013C66.0972 11.3874 66.8129 12.8752 67.2712 15.2189L61.7237 16.1627C61.5814 15.2754 61.3805 14.4174 61.0938 13.9026C60.7799 13.3021 60.1794 12.8438 59.1498 12.8438C58.1202 12.8438 57.549 13.2728 57.2058 13.9026C56.691 14.8464 56.4336 16.6481 56.4336 18.8788C56.4336 21.1095 56.691 22.9113 57.2058 23.855C57.549 24.4849 58.1495 24.9139 59.1498 24.9139C60.2087 24.9139 60.8092 24.3991 61.0938 23.855C61.3512 23.3695 61.6379 22.3672 61.7509 21.2518L67.3277 22.1956C66.8694 24.7402 66.183 26.3138 65.0112 27.4564C63.3517 29.0865 61.1231 29.5155 59.1205 29.5155C57.233 29.5155 55.0023 29.143 53.2299 27.4564C51.4846 25.7969 50.5137 23.1373 50.5137 18.8767V18.8809Z" fill="white"/>
<path d="M69.959 8.87109H75.7345V23.8562H83.2553V28.8888H69.959V8.87109Z" fill="white"/>
<path d="M85.8281 8.87109H100.955V13.6171H91.3191V16.3061H97.6952V20.824H91.3191V24.0842H100.955V28.8888H85.8281V8.87109Z" fill="white"/>
<path d="M107.731 8.87109H114.308L120.113 28.8888H114.308L113.707 26.4572H108.302L107.731 28.8888H101.926L107.731 8.87109ZM109.189 22.7408H112.822L111.049 15.3351H110.993L109.191 22.7408H109.189Z" fill="white"/>
<path d="M122.029 8.87109H127.748L132.953 19.2797H132.982V8.87109H138.615V28.8888H132.896L127.692 18.5096H127.663V28.8888H122.029V8.87109Z" fill="white"/>
<path d="M142.33 8.87109H149.307C155.082 8.87109 157.227 10.2438 158.115 14.1612C158.428 15.5339 158.543 17.0489 158.543 18.88C158.543 20.711 158.428 22.226 158.115 23.5988C157.227 27.5161 155.082 28.8888 149.307 28.8888H142.33V8.87109ZM149.794 24.1407C151.853 24.1407 152.368 23.197 152.54 21.8242C152.626 21.2237 152.682 19.8509 152.682 18.88C152.682 17.909 152.626 16.5342 152.54 15.9336C152.368 14.5608 151.853 13.6171 149.794 13.6171H147.936V24.1407H149.794Z" fill="white"/>
<path d="M160.889 18.8809C160.889 14.6204 161.862 11.9607 163.605 10.3013C165.377 8.61467 167.608 8.24219 169.525 8.24219C171.442 8.24219 173.672 8.61467 175.445 10.3013C177.19 11.9607 178.161 14.6183 178.161 18.8809C178.161 23.1435 177.188 25.8011 175.445 27.4606C173.672 29.1472 171.442 29.5197 169.525 29.5197C167.608 29.5197 165.379 29.1472 163.605 27.4606C161.86 25.8011 160.889 23.1414 160.889 18.8809ZM169.525 24.9139C170.525 24.9139 171.126 24.4849 171.469 23.855C171.984 22.9113 172.241 21.1095 172.241 18.8788C172.241 16.6481 171.984 14.8464 171.469 13.9026C171.126 13.2728 170.525 12.8438 169.525 12.8438C168.525 12.8438 167.924 13.2728 167.581 13.9026C167.066 14.8464 166.809 16.6481 166.809 18.8788C166.809 21.1095 167.066 22.9113 167.581 23.855C167.924 24.4849 168.525 24.9139 169.525 24.9139Z" fill="white"/>
<path d="M181.189 8.87109H189.597C195.26 8.87109 197.662 10.3589 197.662 14.1905C197.662 17.0217 196.633 18.338 194.574 18.88V18.9365C197.032 19.3654 197.518 20.9956 197.547 23.1405C197.604 26.3714 197.662 27.0578 197.89 28.6879V28.8888H191.97C191.855 27.2022 191.828 25.9153 191.799 24.599C191.77 22.8538 191.512 22.1967 188.825 22.1967H186.766V28.8888H181.189V8.87109ZM189.683 17.8504C191.142 17.8504 191.799 17.2498 191.799 15.649C191.799 14.1905 191.313 13.5041 189.683 13.5041H186.766V17.8504H189.683Z" fill="white"/>
<path d="M200.92 8.87109H215.219V13.7615H206.698V16.7644H213.331V21.4538H206.698V28.8888H200.922V8.87109H200.92Z" fill="white"/>
<path d="M97.6945 16.3047H91.3184V20.8226H97.6945V16.3047Z" fill="#DD0000"/>
<path d="M215.22 8.87109H206.672V13.7615H215.22V8.87109Z" fill="#DD0000"/>
<path d="M31.9024 10.5938C31.9024 16.3192 27.2569 20.9668 21.5294 20.9668C21.5294 15.2373 16.8839 10.5938 11.1523 10.5938C5.42067 10.5938 0.779297 15.2373 0.779297 20.9668V0.21875H21.5294C27.2548 0.21875 31.9024 4.86222 31.9024 10.5938Z" fill="#DD0000"/>
<path d="M42.2776 20.9688V41.7189H21.5295C15.8 41.7189 11.1523 37.0754 11.1523 31.3438C11.1523 25.6122 15.8 20.9688 21.5295 20.9688C21.5295 26.6983 26.173 31.3438 31.9025 31.3438C37.632 31.3438 42.2776 26.6983 42.2776 20.9688Z" fill="#DD0000"/>
</svg>
