<svg width="205" height="41" viewBox="0 0 205 41" fill="none" xmlns="http://www.w3.org/2000/svg">
<path d="M48.7989 40.1753V35.6523H52.4359V40.1753H51.7113V36.3173H49.5215V40.1753H48.7969H48.7989Z" fill="black"/>
<path d="M54.9082 40.1753V35.6523H56.5466C56.8671 35.6523 57.1518 35.7081 57.3986 35.8196C57.6455 35.9311 57.8386 36.0903 57.9779 36.2973C58.1173 36.5044 58.187 36.7552 58.187 37.0479C58.187 37.3405 58.1232 37.5973 57.9939 37.8023C57.8645 38.0074 57.6773 38.1647 57.4305 38.2722C57.1836 38.3797 56.883 38.4334 56.5307 38.4334H55.6328V40.1753H54.9082ZM55.6308 37.8103H56.5386C56.8313 37.8103 57.0582 37.7486 57.2195 37.6272C57.3807 37.5037 57.4623 37.3166 57.4623 37.0618C57.4623 36.807 57.3787 36.6198 57.2135 36.4885C57.0482 36.3551 56.8253 36.2894 56.5446 36.2894H55.6308V37.8103Z" fill="black"/>
<path d="M62.3927 40.2727C62.0523 40.2727 61.7377 40.213 61.4471 40.0936C61.1564 39.9741 60.9056 39.8069 60.6886 39.5939C60.4736 39.3809 60.3064 39.1301 60.1869 38.8434C60.0675 38.5567 60.0098 38.2462 60.0098 37.9137C60.0098 37.5813 60.0695 37.2667 60.1869 36.9801C60.3044 36.6934 60.4716 36.4446 60.6886 36.2296C60.9036 36.0165 61.1564 35.8513 61.4471 35.7319C61.7377 35.6124 62.0523 35.5547 62.3927 35.5547C62.7331 35.5547 63.0437 35.6144 63.3323 35.7359C63.621 35.8573 63.8738 36.0245 64.0888 36.2395C64.3038 36.4545 64.471 36.7053 64.5905 36.99C64.7099 37.2747 64.7696 37.5833 64.7696 37.9117C64.7696 38.2402 64.7099 38.5567 64.5905 38.8414C64.471 39.1281 64.3038 39.3769 64.0888 39.5919C63.8738 39.8049 63.621 39.9721 63.3323 40.0916C63.0437 40.211 62.7311 40.2708 62.3927 40.2708V40.2727ZM62.3927 39.5879C62.6216 39.5879 62.8346 39.5481 63.0317 39.4705C63.2288 39.3928 63.4 39.2794 63.5473 39.1321C63.6946 38.9847 63.8081 38.8076 63.8917 38.6025C63.9753 38.3975 64.0171 38.1685 64.0171 37.9157C64.0171 37.5773 63.9455 37.2826 63.8021 37.0318C63.6588 36.781 63.4637 36.5859 63.2188 36.4485C62.974 36.3112 62.6993 36.2415 62.3947 36.2415C62.1657 36.2415 61.9527 36.2813 61.7556 36.3589C61.5586 36.4386 61.3854 36.5501 61.238 36.6974C61.0907 36.8447 60.9753 37.0219 60.8917 37.2249C60.8081 37.43 60.7662 37.6589 60.7662 37.9137C60.7662 38.2521 60.8379 38.5468 60.9832 38.7976C61.1266 39.0484 61.3217 39.2435 61.5665 39.3809C61.8114 39.5183 62.0861 39.5879 62.3927 39.5879Z" fill="black"/>
<path d="M66.959 40.1753V35.6523H67.6597L69.5051 38.6544L69.2244 38.6584L71.0022 35.6543H71.691V40.1773H70.9843L70.9942 36.6159L71.1336 36.6636L69.5947 39.1998H69.0652L67.4985 36.6636L67.6139 36.6159L67.6239 40.1773H66.961L66.959 40.1753Z" fill="black"/>
<path d="M74.1562 40.1753V35.6523H74.8809V37.3942H75.7628C76.0833 37.3942 76.368 37.45 76.6148 37.5615C76.8617 37.673 77.0548 37.8322 77.1941 38.0392C77.3335 38.2463 77.4031 38.4971 77.4031 38.7898C77.4031 39.0147 77.3673 39.2118 77.2937 39.385C77.22 39.5582 77.1125 39.7015 76.9731 39.819C76.8318 39.9364 76.6586 40.026 76.4536 40.0857C76.2485 40.1454 76.0116 40.1753 75.7468 40.1753H74.1562ZM74.8809 39.5522H75.7568C76.0494 39.5522 76.2764 39.4905 76.4376 39.3691C76.5989 39.2456 76.6805 39.0585 76.6805 38.8077C76.6805 38.5568 76.5969 38.3657 76.4317 38.2323C76.2664 38.099 76.0435 38.0313 75.7628 38.0313H74.8809V39.5522ZM78.0402 40.1753V35.6523H78.7648V40.1753H78.0402Z" fill="black"/>
<path d="M81.2363 40.1753V35.6523H81.961V39.5104H83.8163V35.6523H84.541V39.5104H86.3884V35.6523H87.113V40.1753H81.2383H81.2363Z" fill="black"/>
<path d="M89.4231 40.2529L89.1523 39.588C89.2957 39.5423 89.4211 39.4885 89.5246 39.4228C89.6281 39.3571 89.7137 39.2695 89.7854 39.16C89.8551 39.0485 89.9108 38.9032 89.9506 38.7241C89.9904 38.5449 90.0183 38.3179 90.0362 38.0432C90.0541 37.7685 90.0621 37.4341 90.0621 37.0359V35.6523H93.2254V40.1753H92.5008V36.3173H90.7569V37.008C90.7569 37.4779 90.7429 37.882 90.7151 38.2204C90.6872 38.5588 90.6414 38.8455 90.5777 39.0804C90.514 39.3133 90.4304 39.5064 90.3289 39.6597C90.2273 39.813 90.0999 39.9344 89.9506 40.026C89.8013 40.1176 89.6261 40.1932 89.4251 40.2529H89.4231Z" fill="black"/>
<path d="M95.6934 40.1753V35.6523H98.6178V36.2914H96.418V37.5117H98.3172V38.1169H96.418V39.5283H98.6377V40.1753H95.6934Z" fill="black"/>
<path d="M100.941 40.1753V35.6523H101.666V37.448H103.856V35.6523H104.58V40.1753H103.856V38.1149H101.666V40.1753H100.941Z" fill="black"/>
<path d="M107.053 40.1753V35.6523H107.777V37.448H109.967V35.6523H110.692V40.1753H109.967V38.1149H107.777V40.1753H107.053Z" fill="black"/>
<path d="M113.162 40.1753V35.6523H113.887V37.3942H114.769C115.089 37.3942 115.374 37.45 115.621 37.5615C115.868 37.673 116.061 37.8322 116.2 38.0392C116.339 38.2463 116.409 38.4971 116.409 38.7898C116.409 39.0147 116.373 39.2118 116.3 39.385C116.226 39.5582 116.118 39.7015 115.979 39.819C115.838 39.9364 115.664 40.026 115.459 40.0857C115.254 40.1454 115.017 40.1753 114.753 40.1753H113.162ZM113.887 39.5522H114.763C115.055 39.5522 115.282 39.4905 115.444 39.3691C115.605 39.2456 115.686 39.0585 115.686 38.8077C115.686 38.5568 115.603 38.3657 115.438 38.2323C115.272 38.099 115.049 38.0313 114.769 38.0313H113.887V39.5522ZM117.046 40.1753V35.6523H117.771V40.1753H117.046Z" fill="black"/>
<path d="M120.24 40.1744V35.6514H120.961V38.9919L123.222 35.6514H123.921V40.1744H123.204V36.8101L120.933 40.1744H120.242H120.24ZM122.082 35.102C121.843 35.102 121.632 35.0522 121.451 34.9527C121.269 34.8532 121.13 34.7178 121.031 34.5426C120.931 34.3674 120.885 34.1684 120.891 33.9414H121.486C121.478 34.1405 121.528 34.2997 121.636 34.4212C121.745 34.5426 121.893 34.6043 122.08 34.6043C122.267 34.6043 122.414 34.5426 122.522 34.4212C122.629 34.2997 122.677 34.1405 122.667 33.9414H123.264C123.268 34.1664 123.22 34.3654 123.121 34.5386C123.021 34.7138 122.88 34.8512 122.701 34.9507C122.522 35.0503 122.313 35.1 122.08 35.1L122.082 35.102Z" fill="black"/>
<path d="M129.27 40.1753V35.6523H129.994V37.448H130.834V38.1129H129.994V40.1733H129.27V40.1753ZM132.071 40.1753L130.219 37.7884L131.863 35.6523H132.755L131.101 37.7844L133.004 40.1753H132.071Z" fill="black"/>
<path d="M134.896 40.2529L134.625 39.588C134.768 39.5423 134.894 39.4885 134.997 39.4228C135.101 39.3571 135.186 39.2695 135.258 39.16C135.328 39.0485 135.383 38.9032 135.423 38.7241C135.463 38.5449 135.491 38.3179 135.509 38.0432C135.527 37.7685 135.535 37.4341 135.535 37.0359V35.6523H138.698V40.1753H137.973V36.3173H136.23V37.008C136.23 37.4779 136.216 37.882 136.188 38.2204C136.16 38.5588 136.114 38.8455 136.05 39.0804C135.987 39.3133 135.903 39.5064 135.802 39.6597C135.7 39.813 135.573 39.9344 135.423 40.026C135.274 40.1176 135.099 40.1932 134.898 40.2529H134.896Z" fill="black"/>
<path d="M141.164 40.1753V35.6523H141.885V38.9928L144.146 35.6523H144.845V40.1753H144.128V36.811L141.857 40.1753H141.166H141.164Z" fill="black"/>
<path d="M147.316 40.1753V35.6523H148.041V37.448H150.231V35.6523H150.955V40.1753H150.231V38.1149H148.041V40.1753H147.316Z" fill="black"/>
<path d="M153.426 40.1753V35.6523H154.146V38.9928L156.408 35.6523H157.107V40.1753H156.39V36.811L154.119 40.1753H153.428H153.426Z" fill="black"/>
<path d="M159.578 40.1753V35.6523H160.303V37.448H162.493V35.6523H163.217V40.1753H162.493V38.1149H160.303V40.1753H159.578Z" fill="black"/>
<path d="M165.688 40.1753V35.6523H168.25V36.3173H166.412V40.1753H165.688Z" fill="black"/>
<path d="M47.8125 18.4842C47.8125 14.4311 48.7382 11.9008 50.3965 10.3222C52.0826 8.71763 54.2048 8.36328 56.0283 8.36328C57.4696 8.36328 59.8644 8.58027 61.6044 10.3222C62.6375 11.3554 63.3184 12.7708 63.7543 15.0004L58.4769 15.8982C58.3415 15.0542 58.1504 14.238 57.8777 13.7482C57.5791 13.1769 57.0077 12.7409 56.0283 12.7409C55.0488 12.7409 54.5054 13.149 54.1789 13.7482C53.6892 14.6461 53.4443 16.3601 53.4443 18.4822C53.4443 20.6043 53.6892 22.3184 54.1789 23.2162C54.5054 23.8154 55.0767 24.2235 56.0283 24.2235C57.0356 24.2235 57.6069 23.7338 57.8777 23.2162C58.1225 22.7543 58.3953 21.8008 58.5028 20.7397L63.8081 21.6375C63.3721 24.0583 62.7192 25.5553 61.6044 26.6423C60.0257 28.193 57.9056 28.6012 56.0004 28.6012C54.2048 28.6012 52.0826 28.2468 50.3965 26.6423C48.7362 25.0636 47.8125 22.5334 47.8125 18.4802V18.4842Z" fill="black"/>
<path d="M66.3105 8.96289H71.805V23.2186H78.9597V28.0063H66.3105V8.96289Z" fill="black"/>
<path d="M81.4082 8.96289H95.7993V13.4779H86.6319V16.036H92.6977V20.334H86.6319V23.4356H95.7993V28.0063H81.4082V8.96289Z" fill="black"/>
<path d="M102.245 8.96289H108.502L114.024 28.0063H108.502L107.931 25.6931H102.788L102.245 28.0063H96.7227L102.245 8.96289ZM103.633 22.1575H107.088L105.402 15.1123H105.349L103.635 22.1575H103.633Z" fill="black"/>
<path d="M115.848 8.96289H121.288L126.239 18.8648H126.267V8.96289H131.626V28.0063H126.186L121.235 18.1322H121.207V28.0063H115.848V8.96289Z" fill="black"/>
<path d="M135.16 8.96289H141.797C147.292 8.96289 149.332 10.2688 150.176 13.9955C150.475 15.3014 150.584 16.7427 150.584 18.4846C150.584 20.2265 150.475 21.6678 150.176 22.9737C149.332 26.7004 147.292 28.0063 141.797 28.0063H135.16V8.96289ZM142.261 23.4893C144.22 23.4893 144.71 22.5915 144.873 21.2856C144.955 20.7142 145.008 19.4083 145.008 18.4846C145.008 17.5609 144.955 16.253 144.873 15.6816C144.71 14.3757 144.22 13.4779 142.261 13.4779H140.493V23.4893H142.261Z" fill="black"/>
<path d="M152.816 18.4842C152.816 14.4311 153.742 11.9008 155.4 10.3222C157.087 8.71763 159.209 8.36328 161.032 8.36328C162.856 8.36328 164.978 8.71763 166.664 10.3222C168.324 11.9008 169.248 14.4291 169.248 18.4842C169.248 22.5393 168.322 25.0676 166.664 26.6462C164.978 28.2508 162.856 28.6051 161.032 28.6051C159.209 28.6051 157.089 28.2508 155.4 26.6462C153.74 25.0676 152.816 22.5374 152.816 18.4842ZM161.032 24.2235C161.984 24.2235 162.555 23.8154 162.882 23.2162C163.371 22.3184 163.616 20.6043 163.616 18.4822C163.616 16.3601 163.371 14.6461 162.882 13.7482C162.555 13.149 161.984 12.7409 161.032 12.7409C160.081 12.7409 159.509 13.149 159.183 13.7482C158.693 14.6461 158.448 16.3601 158.448 18.4822C158.448 20.6043 158.693 22.3184 159.183 23.2162C159.509 23.8154 160.081 24.2235 161.032 24.2235Z" fill="black"/>
<path d="M172.129 8.96289H180.128C185.515 8.96289 187.8 10.3783 187.8 14.0234C187.8 16.7168 186.821 17.969 184.862 18.4846V18.5384C187.201 18.9465 187.663 20.4972 187.691 22.5377C187.744 25.6115 187.8 26.2644 188.017 27.8152V28.0063H182.385C182.276 26.4018 182.25 25.1775 182.222 23.9253C182.194 22.265 181.949 21.6399 179.393 21.6399H177.434V28.0063H172.129V8.96289ZM180.209 17.5052C181.597 17.5052 182.222 16.9338 182.222 15.4109C182.222 14.0234 181.76 13.3704 180.209 13.3704H177.434V17.5052H180.209Z" fill="black"/>
<path d="M190.898 8.96289H204.501V13.6153H196.395V16.472H202.706V20.9332H196.395V28.0063H190.9V8.96289H190.898Z" fill="black"/>
<path d="M92.6986 16.0352H86.6328V20.3332H92.6986V16.0352Z" fill="#DD0000"/>
<path d="M204.501 8.96289H196.369V13.6153H204.501V8.96289Z" fill="#DD0000"/>
<path d="M30.1063 10.5967C30.1063 16.0433 25.6869 20.4648 20.2382 20.4648C20.2382 15.0141 15.8188 10.5967 10.3661 10.5967C4.91351 10.5967 0.498047 15.0141 0.498047 20.4648V0.726562H20.2382C25.6849 0.726562 30.1063 5.14402 30.1063 10.5967Z" fill="#DD0000"/>
<path d="M39.9755 20.4648V40.205H20.2373C14.7867 40.205 10.3652 35.7876 10.3652 30.3349C10.3652 24.8823 14.7867 20.4648 20.2373 20.4648C20.2373 25.9155 24.6548 30.3349 30.1054 30.3349C35.5561 30.3349 39.9755 25.9155 39.9755 20.4648Z" fill="#DD0000"/>
</svg>
